<svg width="25" height="24" viewBox="0 0 25 24" fill="none" xmlns="http://www.w3.org/2000/svg">
<path d="M16.001 17.75L17.2944 19.5205C17.4158 19.7127 17.6491 19.7985 17.8621 19.7224C18.6659 19.4353 20.6582 18.6572 22.2986 17.4725C22.4265 17.3801 22.5004 17.2261 22.4994 17.0673C22.4994 8.25003 20.001 5.75003 20.001 5.75003C20.001 5.75003 18.001 4.60216 15.8549 4.25605C15.6438 4.22199 15.437 4.33512 15.3431 4.52894L14.8981 5.4468C14.8981 5.4468 13.7855 5.214 12.5002 5.214C11.2149 5.214 10.1023 5.4468 10.1023 5.4468L9.6573 4.52894C9.56333 4.33512 9.35663 4.22199 9.14548 4.25605C7.00098 4.6019 5.00098 5.75003 5.00098 5.75003C5.00098 5.75003 2.50099 8.25003 2.50099 17.0673C2.49999 17.2261 2.57384 17.3801 2.70178 17.4725C4.34215 18.6572 6.33449 19.4353 7.13825 19.7224C7.35124 19.7985 7.58456 19.7127 7.70601 19.5205L9.00098 17.75" fill="white"/>
<path d="M18.001 16.75C18.001 16.75 15.7059 18.25 12.501 18.25C9.29606 18.25 7.00098 16.75 7.00098 16.75" stroke="#49638A" stroke-linecap="round" stroke-linejoin="round"/>
<path d="M17.751 12.25C17.751 13.3546 16.9675 14.25 16.001 14.25C15.0345 14.25 14.251 13.3546 14.251 12.25C14.251 11.1454 15.0345 10.25 16.001 10.25C16.9675 10.25 17.751 11.1454 17.751 12.25Z" fill="#49638A"/>
<path d="M10.751 12.25C10.751 13.3546 9.96748 14.25 9.00098 14.25C8.03449 14.25 7.25098 13.3546 7.25098 12.25C7.25098 11.1454 8.03449 10.25 9.00098 10.25C9.96748 10.25 10.751 11.1454 10.751 12.25Z" fill="#49638A"/>
</svg>
