<svg width="25" height="24" viewBox="0 0 25 24" fill="none" xmlns="http://www.w3.org/2000/svg">
<path d="M12.4854 15.4083L15.7268 19.0936C16.9277 20.4589 17.5282 21.1416 18.1567 20.9754C18.7852 20.8092 19.0008 19.9108 19.4318 18.1138L21.8229 8.14593C22.4868 5.37835 22.8187 3.99457 22.0808 3.31203C21.343 2.6295 20.064 3.13728 17.5061 4.15285L5.63876 8.86452C3.59293 9.67677 2.57001 10.0829 2.50507 10.7808C2.49842 10.8522 2.49831 10.9241 2.50474 10.9955C2.56754 11.6937 3.58921 12.1033 5.63255 12.9223C6.55838 13.2934 7.0213 13.479 7.3532 13.8344C7.39052 13.8743 7.4264 13.9157 7.46078 13.9584C7.76658 14.3384 7.89709 14.8371 8.15808 15.8344L8.64653 17.701C8.9005 18.6715 9.02749 19.1568 9.36008 19.223C9.69267 19.2891 9.98225 18.8867 10.5614 18.0819L12.4854 15.4083ZM12.4854 15.4083L12.1676 15.0771C11.8059 14.7001 11.6251 14.5117 11.6251 14.2775C11.6251 14.0433 11.8059 13.8548 12.1676 13.4778L15.7406 9.75412" stroke="white" stroke-linecap="round" stroke-linejoin="round"/>
</svg>
