<svg width="10" height="8" viewBox="0 0 10 8" fill="none" xmlns="http://www.w3.org/2000/svg">
<path d="M1.286 -3.59963e-07L8.713 -3.53188e-08C8.95833 -2.45949e-08 9.15433 0.0813338 9.301 0.244C9.44766 0.406 9.521 0.595334 9.521 0.812C9.521 0.88 9.51166 0.951 9.493 1.025C9.475 1.09833 9.44733 1.16867 9.41 1.236L5.677 7.079C5.59033 7.203 5.491 7.29633 5.379 7.359C5.26766 7.421 5.14133 7.452 5 7.452C4.85866 7.452 4.73233 7.421 4.621 7.359C4.50966 7.297 4.41033 7.20367 4.323 7.079L0.589996 1.236C0.553329 1.16867 0.525662 1.09767 0.506996 1.023C0.48833 0.948333 0.478996 0.877333 0.478996 0.81C0.478996 0.592667 0.552329 0.403333 0.698996 0.241999C0.845662 0.0806659 1.04133 -3.70658e-07 1.286 -3.59963e-07Z" fill="white"/>
</svg>
