<svg width="13" height="8" viewBox="0 0 13 8" fill="none" xmlns="http://www.w3.org/2000/svg">
<path d="M0.295798 1.2842C0.20207 1.37716 0.127676 1.48777 0.0769069 1.60962C0.0261382 1.73148 -2.68292e-07 1.86219 -2.62522e-07 1.9942C-2.56751e-07 2.12621 0.0261382 2.25692 0.0769069 2.37878C0.127676 2.50064 0.20207 2.61124 0.295798 2.7042L5.2958 7.7042C5.38876 7.79793 5.49936 7.87232 5.62122 7.92309C5.74308 7.97386 5.87379 8 6.0058 8C6.13781 8 6.26852 7.97386 6.39038 7.92309C6.51223 7.87232 6.62284 7.79793 6.7158 7.7042L11.7158 2.7042C11.8095 2.61124 11.8839 2.50064 11.9347 2.37878C11.9855 2.25692 12.0116 2.12621 12.0116 1.9942C12.0116 1.86219 11.9855 1.73148 11.9347 1.60962C11.8839 1.48777 11.8095 1.37716 11.7158 1.2842C11.6228 1.19047 11.5122 1.11608 11.3904 1.06531C11.2685 1.01454 11.1378 0.988403 11.0058 0.988403C10.8738 0.988403 10.7431 1.01454 10.6212 1.06531C10.4994 1.11608 10.3888 1.19047 10.2958 1.2842L6.0058 5.5842L1.7158 1.2842C1.62284 1.19047 1.51223 1.11608 1.39037 1.06531C1.26852 1.01454 1.13781 0.988403 1.0058 0.988403C0.873786 0.988403 0.74308 1.01454 0.621221 1.06531C0.499362 1.11608 0.388761 1.19047 0.295798 1.2842Z" fill="#918C8C"/>
</svg>
