<svg width="21" height="18" viewBox="0 0 21 18" fill="none" xmlns="http://www.w3.org/2000/svg">
<path d="M16.864 16.3639C18.1227 15.1052 18.9798 13.5016 19.3271 11.7558C19.6743 10.0099 19.4961 8.20035 18.8149 6.55582C18.1337 4.9113 16.9802 3.50569 15.5001 2.51677C14.0201 1.52784 12.28 1 10.5 1C8.71998 1 6.97992 1.52784 5.49988 2.51677C4.01984 3.50569 2.86629 4.9113 2.1851 6.55582C1.50391 8.20035 1.32567 10.0099 1.67293 11.7558C2.02019 13.5016 2.87734 15.1052 4.136 16.3639M14.036 13.536C14.7351 12.8367 15.2112 11.9458 15.404 10.9759C15.5968 10.0061 15.4978 9.00081 15.1193 8.08725C14.7408 7.1737 14.0999 6.39289 13.2777 5.84354C12.4555 5.29419 11.4889 5.00098 10.5 5.00098C9.51115 5.00098 8.54451 5.29419 7.72229 5.84354C6.90007 6.39289 6.25921 7.1737 5.88073 8.08725C5.50225 9.00081 5.40316 10.0061 5.59598 10.9759C5.7888 11.9458 6.26487 12.8367 6.964 13.536M9.5 10C9.5 10.2652 9.60536 10.5196 9.7929 10.7071C9.98043 10.8946 10.2348 11 10.5 11C10.7652 11 11.0196 10.8946 11.2071 10.7071C11.3946 10.5196 11.5 10.2652 11.5 10C11.5 9.73478 11.3946 9.48043 11.2071 9.29289C11.0196 9.10536 10.7652 9 10.5 9C10.2348 9 9.98043 9.10536 9.7929 9.29289C9.60536 9.48043 9.5 9.73478 9.5 10Z" stroke="white" stroke-width="1.5" stroke-linecap="round" stroke-linejoin="round"/>
</svg>
